{
    "asset" : {
        "generator" : "Khronos glTF Blender I/O v1.5.17",
        "version" : "2.0"
    },
    "scene" : 0,
    "scenes" : [
        {
            "name" : "Scene",
            "nodes" : [
                0,
                1,
                2
            ]
        }
    ],
    "nodes" : [
        {
            "name" : "Light",
            "rotation" : [
                0.16907575726509094,
                0.7558803558349609,
                -0.27217137813568115,
                0.570947527885437
            ],
            "translation" : [
                4.076245307922363,
                5.903861999511719,
                -1.0054539442062378
            ]
        },
        {
            "name" : "Camera",
            "rotation" : [
                0.483536034822464,
                0.33687159419059753,
                -0.20870360732078552,
                0.7804827094078064
            ],
            "translation" : [
                7.358891487121582,
                4.958309173583984,
                6.925790786743164
            ]
        },
        {
            "mesh" : 0,
            "name" : "Cone.001",
            "rotation" : [
                0,
                0,
                0.7113412022590637,
                -0.7028468251228333
            ],
            "scale" : [
                0.3919513523578644,
                0.23513437807559967,
                0.3919694423675537
            ],
            "translation" : [
                2.470795154571533,
                0,
                0
            ]
        }
    ],
    "materials" : [
        {
            "doubleSided" : true,
            "name" : "Material.006",
            "pbrMetallicRoughness" : {
                "baseColorFactor" : [
                    1,
                    0.9696208238601685,
                    0.9696208238601685,
                    1
                ],
                "metallicFactor" : 0,
                "roughnessFactor" : 0.4000000059604645
            }
        },
        {
            "doubleSided" : true,
            "name" : "Material.004",
            "pbrMetallicRoughness" : {
                "baseColorFactor" : [
                    0.8000000715255737,
                    0,
                    0.0022893103305250406,
                    1
                ],
                "metallicFactor" : 0,
                "roughnessFactor" : 0.4000000059604645
            }
        },
        {
            "doubleSided" : true,
            "name" : "Material.005",
            "pbrMetallicRoughness" : {
                "baseColorFactor" : [
                    0,
                    0,
                    0,
                    1
                ],
                "metallicFactor" : 0,
                "roughnessFactor" : 0.4000000059604645
            }
        }
    ],
    "meshes" : [
        {
            "name" : "Cone.002",
            "primitives" : [
                {
                    "attributes" : {
                        "POSITION" : 0,
                        "NORMAL" : 1,
                        "TEXCOORD_0" : 2
                    },
                    "indices" : 3,
                    "material" : 0
                },
                {
                    "attributes" : {
                        "POSITION" : 4,
                        "NORMAL" : 5,
                        "TEXCOORD_0" : 6
                    },
                    "indices" : 7,
                    "material" : 1
                },
                {
                    "attributes" : {
                        "POSITION" : 8,
                        "NORMAL" : 9,
                        "TEXCOORD_0" : 10
                    },
                    "indices" : 11,
                    "material" : 2
                }
            ]
        }
    ],
    "accessors" : [
        {
            "bufferView" : 0,
            "componentType" : 5126,
            "count" : 832,
            "max" : [
                1.193076491355896,
                1,
                6.452221870422363
            ],
            "min" : [
                -1.041624903678894,
                -24.265607833862305,
                -6.463459014892578
            ],
            "type" : "VEC3"
        },
        {
            "bufferView" : 1,
            "componentType" : 5126,
            "count" : 832,
            "type" : "VEC3"
        },
        {
            "bufferView" : 2,
            "componentType" : 5126,
            "count" : 832,
            "type" : "VEC2"
        },
        {
            "bufferView" : 3,
            "componentType" : 5123,
            "count" : 1488,
            "type" : "SCALAR"
        },
        {
            "bufferView" : 4,
            "componentType" : 5126,
            "count" : 96,
            "max" : [
                1.0449421405792236,
                -0.9233769178390503,
                8.791861534118652
            ],
            "min" : [
                -1.047081470489502,
                -13.60560417175293,
                -8.791861534118652
            ],
            "type" : "VEC3"
        },
        {
            "bufferView" : 5,
            "componentType" : 5126,
            "count" : 96,
            "type" : "VEC3"
        },
        {
            "bufferView" : 6,
            "componentType" : 5126,
            "count" : 96,
            "type" : "VEC2"
        },
        {
            "bufferView" : 7,
            "componentType" : 5123,
            "count" : 144,
            "type" : "SCALAR"
        },
        {
            "bufferView" : 8,
            "componentType" : 5126,
            "count" : 48,
            "max" : [
                2.4702188968658447,
                -24.193073272705078,
                2.273371934890747
            ],
            "min" : [
                -2.1193864345550537,
                -24.515214920043945,
                -2.273371934890747
            ],
            "type" : "VEC3"
        },
        {
            "bufferView" : 9,
            "componentType" : 5126,
            "count" : 48,
            "type" : "VEC3"
        },
        {
            "bufferView" : 10,
            "componentType" : 5126,
            "count" : 48,
            "type" : "VEC2"
        },
        {
            "bufferView" : 11,
            "componentType" : 5123,
            "count" : 72,
            "type" : "SCALAR"
        }
    ],
    "bufferViews" : [
        {
            "buffer" : 0,
            "byteLength" : 9984,
            "byteOffset" : 0
        },
        {
            "buffer" : 0,
            "byteLength" : 9984,
            "byteOffset" : 9984
        },
        {
            "buffer" : 0,
            "byteLength" : 6656,
            "byteOffset" : 19968
        },
        {
            "buffer" : 0,
            "byteLength" : 2976,
            "byteOffset" : 26624
        },
        {
            "buffer" : 0,
            "byteLength" : 1152,
            "byteOffset" : 29600
        },
        {
            "buffer" : 0,
            "byteLength" : 1152,
            "byteOffset" : 30752
        },
        {
            "buffer" : 0,
            "byteLength" : 768,
            "byteOffset" : 31904
        },
        {
            "buffer" : 0,
            "byteLength" : 288,
            "byteOffset" : 32672
        },
        {
            "buffer" : 0,
            "byteLength" : 576,
            "byteOffset" : 32960
        },
        {
            "buffer" : 0,
            "byteLength" : 576,
            "byteOffset" : 33536
        },
        {
            "buffer" : 0,
            "byteLength" : 384,
            "byteOffset" : 34112
        },
        {
            "buffer" : 0,
            "byteLength" : 144,
            "byteOffset" : 34496
        }
    ],
    "buffers" : [
        {
            "byteLength" : 34640,
            "uri" : "data:application/octet-stream;base64,"
        }
    ]
}
